<?xml version="1.0" encoding="UTF-8"?>
<svg id="Camada_2" data-name="Camada 2" xmlns="http://www.w3.org/2000/svg" viewBox="0 0 50.41 49.25">
  <defs>
    <style>
      .cls-1 {
        fill: none;
        stroke: #000;
        stroke-miterlimit: 10;
        stroke-width: 1.3px;
      }

      .cls-2 {
        fill: red;
      }
    </style>
  </defs>
  <g id="Outline">
    <g>
      <path d="M2.46,45.24h-.64v2.89c0,.38-.08.66-.25.84-.17.18-.39.27-.66.27-.29,0-.52-.09-.68-.28-.16-.19-.24-.47-.24-.83v-6.93c0-.39.09-.68.27-.85s.46-.26.85-.26h2.97c.41,0,.76.02,1.05.05.29.03.55.11.79.21.28.12.53.29.75.51.22.22.38.48.49.77s.17.6.17.93c0,.67-.19,1.21-.57,1.61-.38.4-.95.69-1.72.85.32.17.63.42.93.76.29.34.56.69.79,1.07.23.38.41.72.54,1.02.13.31.19.51.19.63s-.04.24-.11.35c-.08.12-.18.21-.31.28-.13.07-.28.1-.45.1-.21,0-.38-.05-.52-.14-.14-.1-.26-.22-.36-.37s-.24-.37-.41-.65l-.73-1.22c-.26-.45-.5-.79-.7-1.02s-.42-.39-.63-.48c-.21-.09-.48-.13-.8-.13ZM3.51,41.46h-1.68v2.48h1.63c.44,0,.81-.04,1.11-.11.3-.08.53-.21.68-.39.16-.18.24-.43.24-.75,0-.25-.06-.47-.19-.66-.13-.19-.3-.33-.53-.43-.21-.09-.63-.14-1.26-.14Z"/>
      <path d="M14.99,41.5h-4.11v2.21h3.78c.28,0,.48.06.62.19s.21.29.21.49-.07.37-.2.5c-.13.13-.34.19-.62.19h-3.78v2.56h4.25c.28,0,.5.07.65.2.15.13.22.31.22.53s-.07.39-.22.52c-.14.13-.36.2-.65.2h-4.96c-.4,0-.68-.09-.85-.27-.18-.18-.26-.46-.26-.85v-6.77c0-.26.04-.48.12-.64.08-.16.2-.29.37-.36.16-.08.38-.11.63-.11h4.82c.29,0,.51.06.65.19.14.13.21.3.21.51s-.07.38-.21.51c-.14.13-.36.19-.65.19Z"/>
      <path d="M25.12,46.25c0,.29-.07.6-.21.93-.14.33-.36.66-.67.98-.3.32-.69.58-1.16.78-.47.2-1.02.3-1.65.3-.48,0-.91-.04-1.3-.14-.39-.09-.74-.23-1.06-.42-.32-.19-.61-.44-.88-.75-.24-.28-.44-.6-.61-.95-.17-.35-.29-.72-.38-1.12-.08-.4-.13-.82-.13-1.27,0-.72.11-1.37.32-1.95.21-.57.51-1.06.91-1.47.39-.41.85-.72,1.38-.93.53-.21,1.09-.32,1.69-.32.73,0,1.38.15,1.95.44.57.29,1.01.65,1.31,1.08.3.43.46.83.46,1.21,0,.21-.07.39-.22.55s-.33.24-.54.24c-.23,0-.41-.06-.52-.17-.12-.11-.25-.3-.39-.57-.24-.45-.52-.78-.84-1s-.72-.33-1.19-.33c-.75,0-1.35.28-1.79.85-.44.57-.67,1.38-.67,2.43,0,.7.1,1.28.29,1.75s.48.81.84,1.04c.36.23.78.34,1.27.34.52,0,.97-.13,1.33-.39.36-.26.64-.64.82-1.15.08-.24.18-.43.29-.58.11-.15.3-.22.55-.22.22,0,.4.08.56.23.16.15.24.34.24.57Z"/>
      <path d="M30.26,45.59h-1.67v2.55c0,.36-.09.64-.26.83-.17.19-.39.28-.65.28-.28,0-.5-.09-.66-.28-.17-.19-.25-.46-.25-.82v-6.94c0-.4.09-.69.28-.86.18-.17.48-.26.88-.26h2.34c.69,0,1.22.05,1.6.16.37.1.69.27.95.51.27.24.47.53.61.87s.21.73.21,1.16c0,.92-.28,1.61-.85,2.08-.57.47-1.41.71-2.52.71ZM29.82,41.46h-1.23v2.75h1.23c.43,0,.79-.04,1.08-.14.29-.09.51-.24.66-.44.15-.2.23-.47.23-.8,0-.4-.12-.72-.35-.97-.26-.27-.8-.4-1.61-.4Z"/>
      <path class="cls-2" d="M42,46.39c0,.54-.14,1.03-.42,1.47-.28.44-.69.77-1.23,1.02s-1.18.37-1.92.37c-.89,0-1.62-.17-2.2-.5-.41-.24-.74-.56-1-.97s-.38-.8-.38-1.18c0-.22.08-.41.23-.57.15-.16.35-.24.59-.24.19,0,.35.06.49.18s.25.31.34.55c.11.29.24.53.37.72.13.19.32.35.56.48.24.12.56.19.95.19.54,0,.98-.12,1.32-.38.34-.25.51-.57.51-.94,0-.3-.09-.54-.27-.73s-.42-.33-.71-.43c-.29-.1-.67-.2-1.16-.31-.65-.15-1.19-.33-1.63-.53-.44-.2-.78-.48-1.04-.83-.26-.35-.38-.78-.38-1.31s.13-.94.4-1.32c.27-.39.66-.68,1.17-.89s1.11-.31,1.81-.31c.55,0,1.03.07,1.43.21.4.14.74.32,1.01.55.27.23.46.47.58.72.12.25.18.49.18.73,0,.22-.08.41-.23.59-.15.17-.35.26-.58.26-.21,0-.37-.05-.48-.16-.11-.1-.23-.28-.35-.51-.16-.34-.36-.61-.59-.8-.23-.19-.6-.29-1.11-.29-.47,0-.85.1-1.14.31-.29.21-.43.45-.43.75,0,.18.05.34.15.47.1.13.23.24.41.34.17.09.35.17.52.22.18.05.47.13.87.23.51.12.97.25,1.38.39.41.14.76.32,1.05.52.29.2.51.46.68.78.16.31.24.7.24,1.15Z"/>
      <path class="cls-2" d="M47.04,45.59h-1.67v2.55c0,.36-.09.64-.26.83-.17.19-.39.28-.65.28-.28,0-.5-.09-.66-.28-.17-.19-.25-.46-.25-.82v-6.94c0-.4.09-.69.28-.86.18-.17.48-.26.88-.26h2.34c.69,0,1.22.05,1.6.16.37.1.69.27.95.51.27.24.47.53.61.87s.21.73.21,1.16c0,.92-.28,1.61-.85,2.08-.57.47-1.41.71-2.52.71ZM46.6,41.46h-1.23v2.75h1.23c.43,0,.79-.04,1.08-.14.29-.09.51-.24.66-.44.15-.2.23-.47.23-.8,0-.4-.12-.72-.35-.97-.26-.27-.8-.4-1.61-.4Z"/>
    </g>
    <g>
      <g>
        <path class="cls-1" d="M36.35,30.93l11.11-10.77-11.16-.05-10.58-11.25-11.09.02L3.69,20.07l11.01.07,11.03,10.82,10.63-.03Z"/>
        <polygon class="cls-1" points="36.35 30.93 25.72 30.95 14.7 20.14 3.69 20.07 14.62 8.88 25.72 8.86 36.3 20.1 47.46 20.15 36.35 30.93"/>
      </g>
      <circle cx="2.46" cy="20.61" r="2.46"/>
      <circle cx="13.49" cy="9.46" r="3.29"/>
      <circle cx="47.12" cy="19.91" r="3.29"/>
      <circle cx="14.49" cy="19.91" r="2.29"/>
      <circle cx="36.24" cy="19.91" r="2.29"/>
      <circle cx="25.69" cy="30.95" r="2.62"/>
      <circle cx="37.82" cy="30.95" r="2.62"/>
      <circle cx="22.36" cy="36.79" r="1.68"/>
      <circle cx="25.74" cy="8.86" r="1.68"/>
      <circle cx="29.94" cy="1.68" r="1.68"/>
      <line class="cls-1" x1="25.47" y1="31.47" x2="22.36" y2="36.79"/>
      <line class="cls-1" x1="29.74" y1="1.96" x2="26.32" y2="7.97"/>
    </g>
  </g>
</svg>