<?xml version="1.0" encoding="UTF-8"?>
<svg id="Camada_2" data-name="Camada 2" xmlns="http://www.w3.org/2000/svg" viewBox="0 0 121.48 50.67">
  <defs>
    <style>
      .cls-1 {
        fill: #1d1d1b;
      }

      .cls-2 {
        fill: red;
      }

      .cls-3 {
        fill: none;
        stroke: #000;
        stroke-miterlimit: 10;
        stroke-width: 2px;
      }
    </style>
  </defs>
  <g id="Outline">
    <g>
      <path class="cls-1" d="M74.32,6.44h-.36v1.61c0,.21-.05.37-.14.47-.09.1-.22.15-.37.15-.16,0-.29-.05-.38-.16s-.13-.26-.13-.46v-3.86c0-.22.05-.38.15-.48.1-.1.26-.15.48-.15h1.65c.23,0,.42,0,.58.03.16.02.31.06.44.12.16.07.3.16.42.28.12.12.21.27.28.43.06.16.09.34.09.52,0,.37-.11.67-.32.9s-.53.38-.96.48c.18.1.35.24.52.42s.31.39.44.6c.13.21.23.4.3.57.07.17.11.29.11.35s-.02.13-.06.2c-.04.07-.1.12-.17.15-.07.04-.16.06-.25.06-.11,0-.21-.03-.29-.08-.08-.05-.14-.12-.2-.2-.06-.08-.13-.2-.23-.36l-.41-.68c-.15-.25-.28-.44-.39-.57-.12-.13-.23-.22-.35-.27-.12-.05-.27-.07-.45-.07ZM74.9,4.34h-.94v1.38h.91c.24,0,.45-.02.62-.06.17-.04.29-.11.38-.21.09-.1.13-.24.13-.42,0-.14-.04-.26-.11-.37-.07-.11-.17-.19-.29-.24-.12-.05-.35-.08-.7-.08Z"/>
      <path d="M81.3,4.36h-2.29v1.23h2.11c.15,0,.27.03.35.1.08.07.12.16.12.28s-.04.21-.11.28c-.07.07-.19.11-.35.11h-2.11v1.43h2.37c.16,0,.28.04.36.11.08.07.12.17.12.3s-.04.21-.12.29c-.08.07-.2.11-.36.11h-2.76c-.22,0-.38-.05-.48-.15s-.15-.26-.15-.48v-3.77c0-.15.02-.26.07-.36.04-.09.11-.16.2-.2.09-.04.21-.06.35-.06h2.68c.16,0,.28.04.36.11.08.07.12.17.12.28s-.04.21-.12.29c-.08.07-.2.11-.36.11Z"/>
      <path d="M83.29,3.58h1.32c.34,0,.64.03.89.1s.47.18.67.36c.52.45.78,1.13.78,2.04,0,.3-.03.58-.08.82s-.13.47-.24.67c-.11.2-.25.38-.42.53-.13.12-.28.22-.44.29-.16.07-.33.12-.51.15s-.39.04-.62.04h-1.32c-.18,0-.32-.03-.42-.08-.09-.06-.15-.13-.18-.24-.03-.1-.04-.23-.04-.4v-3.67c0-.22.05-.38.15-.48.1-.1.26-.15.47-.15ZM83.68,4.38v3.4h.77c.17,0,.3,0,.4-.01s.2-.03.3-.07c.1-.04.19-.09.27-.15.34-.29.51-.78.51-1.48,0-.49-.07-.86-.22-1.11s-.33-.4-.55-.47c-.22-.07-.48-.1-.79-.1h-.67Z"/>
      <path d="M91.15,4.36h-2.29v1.23h2.11c.15,0,.27.03.35.1.08.07.11.16.11.28s-.04.21-.11.28c-.07.07-.19.11-.35.11h-2.11v1.43h2.37c.16,0,.28.04.36.11.08.07.12.17.12.3s-.04.21-.12.29c-.08.07-.2.11-.36.11h-2.76c-.22,0-.38-.05-.48-.15s-.15-.26-.15-.48v-3.77c0-.15.02-.26.06-.36.04-.09.11-.16.2-.2.09-.04.21-.06.35-.06h2.68c.16,0,.28.04.36.11.08.07.12.17.12.28s-.04.21-.12.29c-.08.07-.2.11-.36.11Z"/>
      <path class="cls-1" d="M76.26,12.76h-2.29v1.23h2.11c.16,0,.27.03.35.1.08.07.11.16.11.28s-.04.21-.11.28c-.08.07-.19.11-.35.11h-2.11v1.43h2.37c.16,0,.28.04.36.11.08.07.12.17.12.3s-.04.21-.12.29c-.08.07-.2.11-.36.11h-2.76c-.22,0-.38-.05-.48-.15-.1-.1-.15-.26-.15-.48v-3.77c0-.15.02-.26.06-.36.04-.09.11-.16.2-.2.09-.04.21-.06.35-.06h2.68c.16,0,.28.04.36.11.08.07.12.17.12.28s-.04.21-.12.29c-.08.07-.2.11-.36.11Z"/>
      <path d="M81.44,15.48c0,.3-.08.58-.23.82s-.38.43-.68.57-.66.21-1.07.21c-.5,0-.9-.09-1.22-.28-.23-.13-.41-.31-.56-.54-.14-.22-.21-.44-.21-.65,0-.12.04-.23.13-.32.08-.09.19-.13.33-.13.11,0,.2.03.27.1s.14.17.19.3c.06.16.13.29.21.4s.18.2.31.27c.13.07.31.1.53.1.3,0,.54-.07.73-.21.19-.14.28-.31.28-.52,0-.17-.05-.3-.15-.41-.1-.1-.23-.18-.39-.24-.16-.05-.38-.11-.64-.17-.36-.08-.66-.18-.9-.3-.24-.11-.44-.27-.58-.46-.14-.19-.21-.44-.21-.73s.08-.52.23-.73.37-.38.65-.49c.29-.11.62-.17,1-.17.31,0,.57.04.8.11.22.08.41.18.56.3.15.13.26.26.32.4s.1.27.1.41c0,.12-.04.23-.13.33-.09.1-.19.15-.32.15-.12,0-.2-.03-.26-.09-.06-.06-.13-.15-.2-.29-.09-.19-.2-.34-.33-.44-.13-.11-.33-.16-.62-.16-.26,0-.47.06-.63.17-.16.11-.24.25-.24.42,0,.1.03.19.08.26s.13.14.23.19.19.09.29.12c.1.03.26.07.49.13.28.07.54.14.77.22.23.08.42.18.58.29.16.11.29.26.38.43.09.17.13.39.13.64Z"/>
      <path d="M85.55,12.81h-1.11v3.64c0,.21-.05.37-.14.47-.09.1-.21.15-.36.15s-.27-.05-.37-.15-.14-.26-.14-.46v-3.64h-1.11c-.17,0-.3-.04-.39-.11-.08-.08-.13-.18-.13-.3s.04-.23.13-.31.21-.11.38-.11h3.23c.18,0,.31.04.39.12.08.08.13.18.13.3s-.04.23-.13.3c-.09.08-.22.11-.39.11Z"/>
      <path d="M89.44,16.42l-.24-.63h-2.04l-.24.64c-.09.25-.17.42-.24.51-.07.09-.17.13-.32.13-.13,0-.24-.05-.34-.14s-.15-.2-.15-.32c0-.07.01-.14.04-.21.02-.07.06-.17.11-.3l1.28-3.25c.04-.09.08-.21.13-.34.05-.13.11-.24.16-.33.06-.09.13-.16.23-.21.09-.05.21-.08.35-.08s.26.03.35.08c.09.05.17.12.23.21.06.08.11.17.15.27.04.1.09.23.15.39l1.31,3.23c.1.25.15.42.15.54s-.05.22-.14.32c-.1.1-.21.15-.35.15-.08,0-.15-.01-.21-.04-.06-.03-.1-.07-.14-.12-.04-.05-.08-.12-.12-.23-.04-.1-.08-.19-.11-.27ZM87.43,15.03h1.5l-.76-2.07-.74,2.07Z"/>
      <path d="M91.9,11.98h1.32c.34,0,.64.03.89.1s.47.18.67.36c.52.45.78,1.13.78,2.04,0,.3-.03.58-.08.82s-.13.47-.24.67c-.11.2-.25.38-.42.53-.13.12-.28.22-.44.29-.16.07-.33.12-.51.15s-.39.04-.62.04h-1.32c-.18,0-.32-.03-.42-.08-.09-.06-.15-.13-.18-.24-.03-.1-.04-.23-.04-.4v-3.67c0-.22.05-.38.15-.48.1-.1.26-.15.47-.15ZM92.29,12.78v3.4h.77c.17,0,.3,0,.4-.01s.2-.03.3-.07c.1-.04.19-.09.27-.15.34-.29.51-.78.51-1.48,0-.49-.07-.86-.22-1.11s-.33-.4-.55-.47c-.22-.07-.48-.1-.79-.1h-.67Z"/>
      <path d="M96.46,14.91v-2.41c0-.21.05-.36.14-.46.09-.1.21-.15.36-.15s.28.05.37.15c.09.1.14.26.14.46v2.46c0,.28.03.51.09.7.06.19.17.33.33.44.16.1.38.16.67.16.4,0,.68-.11.84-.32.16-.21.25-.53.25-.96v-2.48c0-.21.05-.36.14-.46.09-.1.21-.15.37-.15s.28.05.37.15c.09.1.14.26.14.46v2.41c0,.39-.04.72-.11.98s-.22.49-.43.69c-.18.17-.39.29-.63.37-.24.08-.52.12-.85.12-.39,0-.72-.04-1-.12-.28-.08-.5-.21-.68-.39-.17-.17-.3-.4-.39-.67-.08-.27-.12-.6-.12-.98Z"/>
      <path d="M104.62,16.42l-.24-.63h-2.04l-.24.64c-.09.25-.17.42-.24.51-.07.09-.17.13-.32.13-.13,0-.24-.05-.34-.14s-.15-.2-.15-.32c0-.07.01-.14.04-.21.02-.07.06-.17.11-.3l1.28-3.25c.04-.09.08-.21.13-.34.05-.13.11-.24.16-.33.06-.09.13-.16.23-.21.09-.05.21-.08.35-.08s.26.03.35.08c.09.05.17.12.23.21.06.08.11.17.15.27.04.1.09.23.15.39l1.31,3.23c.1.25.15.42.15.54s-.05.22-.14.32c-.1.1-.21.15-.35.15-.08,0-.15-.01-.21-.04-.06-.03-.1-.07-.14-.12-.04-.05-.08-.12-.12-.23-.04-.1-.08-.19-.11-.27ZM102.62,15.03h1.5l-.76-2.07-.74,2.07Z"/>
      <path d="M107.45,12.51v3.65h2.06c.16,0,.29.04.38.12s.13.18.13.3-.04.22-.13.3c-.09.08-.21.11-.38.11h-2.45c-.22,0-.38-.05-.48-.15s-.15-.26-.15-.48v-3.86c0-.21.05-.36.14-.46.09-.1.21-.15.36-.15s.28.05.37.15c.09.1.14.26.14.46Z"/>
      <path d="M113.06,11.98h1.32c.34,0,.64.03.89.1s.47.18.67.36c.52.45.78,1.13.78,2.04,0,.3-.03.58-.08.82s-.13.47-.24.67c-.11.2-.25.38-.42.53-.13.12-.28.22-.44.29-.16.07-.33.12-.51.15s-.39.04-.62.04h-1.32c-.18,0-.32-.03-.42-.08-.09-.06-.15-.13-.18-.24-.03-.1-.04-.23-.04-.4v-3.67c0-.22.05-.38.15-.48.1-.1.26-.15.47-.15ZM113.45,12.78v3.4h.77c.17,0,.3,0,.4-.01s.2-.03.3-.07c.1-.04.19-.09.27-.15.34-.29.51-.78.51-1.48,0-.49-.07-.86-.22-1.11s-.33-.4-.55-.47c-.22-.07-.48-.1-.79-.1h-.67Z"/>
      <path d="M120.92,12.76h-2.29v1.23h2.11c.15,0,.27.03.35.1.08.07.11.16.11.28s-.04.21-.11.28c-.07.07-.19.11-.35.11h-2.11v1.43h2.37c.16,0,.28.04.36.11.08.07.12.17.12.3s-.04.21-.12.29c-.08.07-.2.11-.36.11h-2.76c-.22,0-.38-.05-.48-.15s-.15-.26-.15-.48v-3.77c0-.15.02-.26.06-.36.04-.09.11-.16.2-.2.09-.04.21-.06.35-.06h2.68c.16,0,.28.04.36.11.08.07.12.17.12.28s-.04.21-.12.29c-.08.07-.2.11-.36.11Z"/>
      <path class="cls-1" d="M77.23,23.8c0,.16-.04.33-.12.52-.08.19-.2.37-.37.55-.17.18-.38.32-.65.44-.26.11-.57.17-.92.17-.26,0-.5-.03-.72-.08-.22-.05-.41-.13-.59-.23-.18-.11-.34-.25-.49-.42-.13-.16-.25-.33-.34-.53-.09-.19-.16-.4-.21-.62-.05-.22-.07-.46-.07-.7,0-.4.06-.76.18-1.08s.29-.59.5-.82.48-.4.77-.52c.29-.12.61-.18.94-.18.41,0,.77.08,1.08.24.32.16.56.36.73.6.17.24.25.46.25.68,0,.12-.04.22-.12.31-.08.09-.18.13-.3.13-.13,0-.23-.03-.29-.09-.07-.06-.14-.17-.22-.32-.13-.25-.29-.43-.47-.56-.18-.12-.4-.18-.66-.18-.42,0-.75.16-1,.47s-.37.77-.37,1.35c0,.39.05.71.16.97s.26.45.46.58c.2.13.44.19.7.19.29,0,.54-.07.74-.22.2-.14.35-.36.46-.64.04-.13.1-.24.16-.32.06-.08.17-.12.31-.12.12,0,.22.04.31.13.09.08.13.19.13.31Z"/>
      <path d="M80.35,20.29c.52,0,.96.1,1.34.32.37.21.65.51.85.9s.29.84.29,1.37c0,.39-.05.74-.16,1.06s-.26.59-.47.82-.47.41-.77.53-.66.19-1.05.19-.74-.06-1.05-.19c-.31-.13-.57-.3-.78-.53-.21-.23-.36-.51-.47-.83-.11-.32-.16-.67-.16-1.05s.05-.74.17-1.06c.11-.32.27-.6.48-.82.21-.23.46-.4.77-.52.3-.12.64-.18,1.03-.18ZM81.79,22.87c0-.37-.06-.68-.18-.95-.12-.27-.29-.47-.51-.61s-.47-.21-.76-.21c-.2,0-.39.04-.56.11s-.32.19-.44.33-.22.33-.29.56c-.07.23-.11.48-.11.76s.04.54.11.77c.07.23.17.42.3.57s.28.26.45.34.36.11.56.11c.26,0,.5-.07.72-.2s.39-.33.52-.6.19-.61.19-1Z"/>
      <path d="M85.38,24.63l-.8-3.19v3.46c0,.19-.04.33-.13.43-.09.1-.2.14-.34.14s-.25-.05-.33-.14c-.09-.09-.13-.24-.13-.43v-3.96c0-.22.06-.37.17-.44.11-.08.27-.11.46-.11h.31c.19,0,.33.02.41.05.08.03.15.1.19.18.04.09.09.23.14.43l.73,2.75.73-2.75c.05-.2.1-.34.14-.43.04-.09.1-.15.19-.18.09-.04.22-.05.41-.05h.31c.19,0,.35.04.46.11.11.08.17.22.17.44v3.96c0,.19-.04.33-.13.43-.08.1-.2.14-.34.14-.13,0-.24-.05-.33-.14s-.13-.24-.13-.43v-3.46l-.8,3.19c-.05.21-.1.36-.13.46s-.09.18-.18.26-.21.12-.37.12c-.12,0-.22-.03-.3-.08-.08-.05-.15-.12-.19-.2-.05-.08-.08-.17-.11-.27s-.05-.2-.08-.3Z"/>
      <path d="M91.46,23.43h-.93v1.42c0,.2-.05.36-.14.46-.1.11-.22.16-.36.16-.15,0-.28-.05-.37-.16-.09-.1-.14-.26-.14-.46v-3.86c0-.22.05-.38.15-.48.1-.1.26-.14.49-.14h1.3c.38,0,.68.03.89.09.21.06.38.15.53.28.15.13.26.29.34.49s.12.41.12.65c0,.51-.16.9-.47,1.16-.31.26-.78.4-1.4.4ZM91.22,21.14h-.68v1.53h.68c.24,0,.44-.03.6-.08.16-.05.28-.13.37-.25.08-.11.13-.26.13-.45,0-.22-.07-.4-.2-.54-.15-.15-.45-.22-.9-.22Z"/>
      <path d="M95.55,23.24h-.36v1.61c0,.21-.05.37-.14.47-.09.1-.22.15-.37.15-.16,0-.29-.05-.38-.16-.09-.1-.13-.26-.13-.46v-3.86c0-.22.05-.38.15-.47.1-.1.26-.15.47-.15h1.65c.23,0,.42,0,.58.03s.31.06.44.12c.16.07.3.16.42.28s.21.27.28.43.09.34.09.52c0,.37-.11.67-.32.89-.21.22-.53.38-.96.48.18.1.35.24.52.42s.31.39.44.6.23.4.3.57c.07.17.11.29.11.35s-.02.13-.06.2c-.04.07-.1.12-.17.15-.07.04-.16.06-.25.06-.11,0-.21-.03-.29-.08-.08-.05-.14-.12-.2-.2s-.13-.2-.23-.36l-.41-.68c-.15-.25-.28-.44-.39-.57s-.23-.22-.35-.27-.27-.07-.45-.07ZM96.13,21.14h-.94v1.38h.91c.24,0,.45-.02.62-.06.17-.04.29-.11.38-.21s.13-.24.13-.42c0-.14-.04-.26-.11-.37-.07-.11-.17-.19-.29-.24-.12-.05-.35-.07-.7-.07Z"/>
      <path d="M102.43,24.82l-.24-.63h-2.04l-.24.64c-.09.25-.17.42-.24.51s-.17.13-.32.13c-.13,0-.24-.05-.34-.14s-.15-.2-.15-.32c0-.07.01-.14.04-.21.02-.07.06-.17.11-.3l1.28-3.25c.04-.09.08-.21.13-.34.05-.13.11-.24.16-.33.06-.09.13-.16.23-.21s.21-.08.35-.08.26.03.35.08.17.12.23.21c.06.08.11.17.15.27s.09.23.15.39l1.31,3.23c.1.25.15.42.15.54s-.05.22-.14.32-.21.15-.35.15c-.08,0-.15-.01-.21-.04s-.1-.07-.14-.12-.08-.12-.12-.23c-.04-.1-.08-.19-.11-.27ZM100.42,23.43h1.5l-.76-2.07-.74,2.07Z"/>
      <path d="M108.06,23.88c0,.3-.08.58-.23.82-.16.24-.38.43-.68.57s-.66.21-1.07.21c-.49,0-.9-.09-1.22-.28-.23-.13-.41-.31-.56-.54s-.21-.44-.21-.65c0-.12.04-.23.13-.32.08-.09.19-.13.33-.13.11,0,.2.04.27.1s.14.17.19.3c.06.16.13.29.21.4.07.11.18.2.31.27.13.07.31.1.53.1.3,0,.54-.07.73-.21.19-.14.28-.31.28-.52,0-.17-.05-.3-.15-.41s-.23-.18-.39-.24c-.16-.05-.38-.11-.64-.17-.36-.08-.66-.18-.9-.3-.24-.11-.44-.27-.58-.46-.14-.19-.21-.44-.21-.73s.07-.52.22-.73.37-.38.65-.49.62-.17,1-.17c.31,0,.57.04.8.11.22.08.41.18.56.3.15.13.26.26.32.4s.1.27.1.41c0,.12-.04.23-.13.33-.09.1-.19.15-.32.15-.12,0-.2-.03-.26-.09-.06-.06-.13-.15-.2-.29-.09-.19-.2-.34-.33-.44-.13-.11-.33-.16-.62-.16-.26,0-.47.06-.63.17-.16.12-.24.25-.24.42,0,.1.03.19.08.26s.13.14.23.19c.1.05.19.09.29.12.1.03.26.07.49.13.28.07.54.14.77.22.23.08.42.18.58.29.16.11.29.26.38.43.09.17.13.39.13.64Z"/>
      <path class="cls-1" d="M74.9,31.84h-.93v1.42c0,.2-.05.36-.14.46-.1.11-.22.16-.36.16s-.28-.05-.37-.16c-.09-.1-.14-.26-.14-.46v-3.86c0-.22.05-.38.15-.48s.27-.14.49-.14h1.3c.39,0,.68.03.89.09.21.06.38.15.53.28.15.13.26.29.34.49.08.19.12.41.12.65,0,.51-.16.9-.47,1.16-.31.26-.78.4-1.41.4ZM74.66,29.54h-.68v1.53h.68c.24,0,.44-.03.6-.08.16-.05.28-.13.37-.25.08-.11.13-.26.13-.45,0-.22-.06-.4-.19-.54-.15-.15-.45-.22-.9-.22Z"/>
      <path d="M77.64,31.72v-2.41c0-.21.05-.36.14-.46.09-.1.21-.15.36-.15.16,0,.28.05.38.15.09.1.14.26.14.46v2.46c0,.28.03.51.09.7.06.19.17.33.33.44s.38.16.67.16c.4,0,.68-.11.84-.32s.25-.53.25-.96v-2.48c0-.21.05-.36.14-.46s.21-.15.37-.15.28.05.37.15.14.26.14.46v2.41c0,.39-.04.72-.11.98-.08.26-.22.49-.43.69-.18.17-.39.29-.63.37-.24.08-.52.12-.85.12-.39,0-.72-.04-1-.12-.28-.08-.5-.21-.68-.39-.17-.17-.3-.4-.39-.67s-.12-.6-.12-.98ZM79.88,27.47h.46c.12,0,.17.02.17.05,0,.02-.06.09-.19.22-.13.13-.26.25-.39.37-.13.12-.22.19-.27.21-.13.07-.27.1-.42.1-.1,0-.15-.03-.15-.09,0-.04.03-.11.09-.2l.15-.29c.09-.17.17-.27.23-.32.07-.05.17-.07.3-.07Z"/>
      <path d="M85.09,33.79h-1.53c-.22,0-.38-.05-.47-.15-.09-.1-.14-.26-.14-.47v-3.77c0-.22.05-.38.15-.48s.25-.15.47-.15h1.62c.24,0,.45.01.62.04.18.03.33.09.47.17.12.07.22.16.31.27.09.11.16.23.21.36s.07.27.07.42c0,.5-.25.87-.75,1.1.66.21.99.62.99,1.22,0,.28-.07.53-.21.76-.14.22-.34.39-.58.5-.15.06-.33.11-.53.13-.2.03-.43.04-.69.04ZM83.96,29.54v1.29h.93c.25,0,.45-.02.59-.07.14-.05.24-.14.32-.27.06-.1.09-.2.09-.32,0-.25-.09-.42-.27-.5-.18-.08-.46-.12-.82-.12h-.82ZM85.01,31.56h-1.06v1.46h1.09c.69,0,1.03-.25,1.03-.74,0-.25-.09-.44-.27-.55-.18-.11-.44-.17-.8-.17Z"/>
      <path d="M88.98,29.31v3.65h2.06c.16,0,.29.04.38.12.09.08.13.18.13.3s-.04.22-.13.3-.21.11-.38.11h-2.45c-.22,0-.38-.05-.48-.15-.1-.1-.15-.26-.15-.48v-3.86c0-.21.05-.36.14-.46.09-.1.21-.15.36-.15s.28.05.37.15.14.26.14.46Z"/>
      <path d="M92.25,33.25v-3.95c0-.21.05-.36.14-.46.09-.1.21-.15.36-.15s.28.05.37.15.14.26.14.46v3.95c0,.21-.05.36-.14.46s-.22.15-.37.15-.27-.05-.36-.16-.14-.26-.14-.46Z"/>
      <path d="M98.67,32.2c0,.16-.04.33-.12.52-.08.19-.2.37-.37.55s-.38.32-.65.44c-.26.11-.57.17-.92.17-.26,0-.5-.03-.72-.08-.22-.05-.41-.13-.59-.23-.18-.11-.34-.25-.49-.42-.13-.16-.24-.33-.34-.53-.09-.19-.16-.4-.21-.62-.05-.22-.07-.46-.07-.7,0-.4.06-.76.18-1.08s.29-.59.5-.82.47-.4.77-.52c.29-.12.61-.18.94-.18.41,0,.77.08,1.08.24s.56.36.73.6c.17.24.25.46.25.68,0,.12-.04.22-.12.31-.08.09-.18.13-.3.13-.13,0-.23-.03-.29-.09-.07-.06-.14-.17-.22-.32-.13-.25-.29-.43-.47-.56s-.4-.18-.66-.18c-.42,0-.75.16-1,.47s-.37.77-.37,1.35c0,.39.05.71.16.97s.26.45.46.58c.2.13.44.19.71.19.29,0,.54-.07.74-.22.2-.14.35-.36.46-.64.04-.13.1-.24.16-.32s.17-.12.31-.12c.12,0,.22.04.31.13.09.08.13.19.13.31Z"/>
      <path d="M102.79,33.22l-.24-.63h-2.04l-.24.64c-.09.25-.17.42-.24.51s-.17.13-.32.13c-.13,0-.24-.05-.34-.14s-.15-.2-.15-.32c0-.07.01-.14.04-.21.02-.07.06-.17.11-.3l1.28-3.25c.04-.09.08-.21.13-.34.05-.13.11-.24.16-.33.06-.09.13-.16.23-.21s.21-.08.35-.08.26.03.35.08.17.12.23.21c.06.08.11.17.15.27s.09.23.15.39l1.31,3.23c.1.25.15.42.15.54s-.05.22-.14.32-.21.15-.35.15c-.08,0-.15-.01-.21-.04s-.1-.07-.14-.12-.08-.12-.12-.23c-.04-.1-.08-.19-.11-.27ZM100.78,31.83h1.5l-.76-2.07-.74,2.07Z"/>
      <path d="M108.43,32.28c0,.3-.08.58-.23.82-.16.24-.38.43-.68.57s-.66.21-1.07.21c-.49,0-.9-.09-1.22-.28-.23-.13-.41-.31-.56-.54s-.21-.44-.21-.65c0-.12.04-.23.13-.32.08-.09.19-.13.33-.13.11,0,.2.04.27.1s.14.17.19.3c.06.16.13.29.21.4.07.11.18.2.31.27.13.07.31.1.53.1.3,0,.54-.07.73-.21.19-.14.28-.31.28-.52,0-.17-.05-.3-.15-.41s-.23-.18-.39-.24c-.16-.05-.38-.11-.64-.17-.36-.08-.66-.18-.9-.3-.24-.11-.44-.27-.58-.46-.14-.19-.21-.44-.21-.73s.07-.52.22-.73.37-.38.65-.49.62-.17,1-.17c.31,0,.57.04.8.11s.41.18.56.3c.15.13.26.26.32.4s.1.27.1.41c0,.12-.04.23-.13.33-.09.1-.19.15-.32.15-.12,0-.2-.03-.26-.09-.06-.06-.13-.15-.2-.29-.09-.19-.2-.34-.33-.44-.13-.11-.33-.16-.62-.16-.26,0-.47.06-.63.17-.16.12-.24.25-.24.42,0,.1.03.19.08.26s.13.14.23.19c.1.05.19.09.29.12.1.03.26.07.49.13.28.07.54.14.77.22.23.08.42.18.58.29.16.11.29.26.38.43.09.17.13.39.13.64Z"/>
      <path d="M111.67,28.78h1.32c.34,0,.64.03.89.1s.47.18.67.36c.52.45.78,1.13.78,2.04,0,.3-.03.58-.08.82s-.13.47-.24.67-.25.38-.42.54c-.13.12-.28.22-.44.29-.16.07-.33.12-.51.15-.18.03-.39.04-.62.04h-1.32c-.18,0-.32-.03-.42-.08s-.15-.13-.18-.24-.04-.23-.04-.4v-3.67c0-.22.05-.38.15-.47.1-.1.26-.15.47-.15ZM112.06,29.58v3.4h.77c.17,0,.3,0,.4-.01s.2-.03.3-.07c.1-.04.19-.09.27-.15.34-.29.51-.78.51-1.48,0-.5-.07-.87-.22-1.11s-.33-.4-.55-.47-.48-.1-.79-.1h-.67Z"/>
      <path d="M119.52,29.56h-2.29v1.23h2.11c.15,0,.27.04.35.1s.11.16.11.28-.04.21-.11.28c-.07.07-.19.11-.35.11h-2.11v1.43h2.37c.16,0,.28.04.36.11s.12.17.12.29-.04.21-.12.29-.2.11-.36.11h-2.76c-.22,0-.38-.05-.48-.15-.1-.1-.15-.26-.15-.48v-3.77c0-.15.02-.26.06-.36.04-.09.11-.16.2-.2.09-.04.21-.06.35-.06h2.68c.16,0,.28.04.36.11.08.07.12.17.12.28s-.04.21-.12.29c-.08.07-.2.11-.36.11Z"/>
      <path class="cls-2" d="M76.77,40.68c0,.3-.08.58-.23.82-.16.24-.38.43-.69.57s-.66.21-1.07.21c-.5,0-.9-.09-1.22-.28-.23-.13-.41-.31-.56-.54s-.21-.44-.21-.65c0-.12.04-.23.13-.32.08-.09.19-.13.33-.13.11,0,.2.04.27.1s.14.17.19.3c.06.16.13.29.21.4.07.11.18.2.31.27.13.07.31.1.53.1.3,0,.54-.07.73-.21.19-.14.28-.31.28-.52,0-.17-.05-.3-.15-.41-.1-.1-.23-.18-.39-.24-.16-.05-.38-.11-.64-.17-.36-.08-.66-.18-.9-.3-.24-.11-.44-.27-.58-.46-.14-.19-.21-.44-.21-.73s.08-.52.23-.73.37-.38.65-.49c.28-.12.62-.17,1-.17.31,0,.57.04.8.11s.41.18.56.3c.15.13.26.26.33.4s.1.27.1.41c0,.12-.04.23-.13.33-.09.1-.19.15-.32.15-.12,0-.2-.03-.26-.09-.06-.06-.13-.15-.2-.29-.09-.19-.2-.34-.33-.44-.13-.11-.33-.16-.62-.16-.26,0-.47.06-.63.17-.16.12-.24.25-.24.42,0,.1.03.19.08.26s.13.14.23.19c.1.05.19.09.29.12.1.03.26.07.49.13.28.07.54.14.77.22.23.08.42.18.58.29.16.11.29.26.38.43.09.17.13.39.13.64Z"/>
      <path class="cls-2" d="M80.83,41.62l-.24-.63h-2.04l-.24.64c-.09.25-.17.42-.24.51-.07.09-.17.13-.33.13-.13,0-.24-.05-.34-.14-.1-.09-.15-.2-.15-.32,0-.07.01-.14.03-.21.02-.07.06-.17.11-.3l1.28-3.25c.04-.09.08-.21.13-.34.05-.13.11-.24.16-.33.06-.09.13-.16.23-.21s.21-.08.35-.08.26.03.35.08.17.12.23.21c.06.08.11.17.15.27s.09.23.15.39l1.31,3.23c.1.25.15.42.15.54s-.05.22-.14.32-.21.15-.35.15c-.08,0-.15-.01-.21-.04s-.1-.07-.14-.12-.08-.12-.12-.23c-.04-.1-.08-.19-.11-.27ZM78.87,36.44c-.12,0-.19.08-.24.23-.04.13-.1.2-.19.2-.05,0-.09-.02-.13-.07s-.06-.11-.06-.2c0-.11.02-.22.08-.33.05-.11.12-.19.21-.25.09-.06.19-.09.29-.09s.2.01.29.04c.09.03.21.08.35.15.15.07.25.11.3.13s.12.03.18.03.12-.02.16-.05c.04-.03.07-.09.09-.18.04-.13.1-.2.19-.2.05,0,.1.02.14.07.04.05.06.11.06.2,0,.13-.05.27-.15.43-.1.16-.25.24-.45.24-.08,0-.16-.01-.24-.04s-.19-.07-.34-.13c-.14-.06-.25-.11-.32-.14-.07-.03-.14-.04-.21-.04ZM78.83,40.23h1.5l-.76-2.07-.74,2.07Z"/>
      <path class="cls-2" d="M84.87,37.09c.52,0,.96.1,1.34.32.37.21.65.51.85.9s.29.84.29,1.37c0,.39-.05.74-.16,1.06s-.26.59-.47.82-.47.41-.77.53-.66.19-1.05.19-.74-.06-1.05-.19c-.31-.13-.57-.3-.78-.53-.21-.23-.36-.51-.47-.83-.11-.32-.16-.67-.16-1.05s.06-.74.17-1.06c.11-.32.27-.6.48-.82.21-.23.46-.4.77-.52.3-.12.64-.18,1.03-.18ZM86.31,39.67c0-.37-.06-.68-.18-.95-.12-.27-.29-.47-.51-.61s-.47-.21-.76-.21c-.2,0-.39.04-.56.11s-.32.19-.44.33-.22.33-.29.56c-.07.23-.11.48-.11.76s.04.54.11.77c.07.23.17.42.3.57s.28.26.45.34.36.11.56.11c.26,0,.5-.07.72-.2s.39-.33.52-.6.19-.61.19-1Z"/>
      <path class="cls-2" d="M74.9,48.64h-.93v1.42c0,.2-.05.36-.14.46-.1.11-.22.16-.36.16s-.28-.05-.37-.16c-.09-.1-.14-.26-.14-.46v-3.86c0-.22.05-.38.15-.48s.27-.14.49-.14h1.3c.39,0,.68.03.89.09.21.06.38.15.53.28.15.13.26.29.34.49.08.19.12.41.12.65,0,.51-.16.9-.47,1.16-.31.26-.78.4-1.41.4ZM74.66,46.34h-.68v1.53h.68c.24,0,.44-.03.6-.08.16-.05.28-.13.37-.25.08-.11.13-.26.13-.45,0-.22-.06-.4-.19-.54-.15-.15-.45-.22-.9-.22Z"/>
      <path class="cls-2" d="M80.22,50.02l-.24-.63h-2.04l-.24.64c-.09.25-.17.42-.24.51-.07.09-.17.13-.33.13-.13,0-.24-.05-.34-.14-.1-.09-.15-.2-.15-.32,0-.07.01-.14.03-.21.02-.07.06-.17.11-.3l1.28-3.25c.04-.09.08-.21.13-.34.05-.13.11-.24.16-.33.06-.09.13-.16.23-.21s.21-.08.35-.08.26.03.35.08.17.12.23.21c.06.08.11.17.15.27s.09.23.15.39l1.31,3.23c.1.25.15.42.15.54s-.05.22-.14.32-.21.15-.35.15c-.08,0-.15-.01-.21-.04s-.1-.07-.14-.12-.08-.12-.12-.23c-.04-.1-.08-.19-.11-.27ZM78.21,48.63h1.5l-.76-2.07-.74,2.07Z"/>
      <path class="cls-2" d="M81.79,48.51v-2.41c0-.21.05-.36.14-.46.09-.1.21-.15.36-.15s.28.05.37.15c.09.1.14.26.14.46v2.46c0,.28.03.51.09.7.06.19.17.33.33.44s.38.16.67.16c.4,0,.68-.11.84-.32s.25-.53.25-.96v-2.48c0-.21.05-.36.14-.46s.21-.15.37-.15.28.05.37.15.14.26.14.46v2.41c0,.39-.04.72-.11.98-.08.26-.22.49-.43.69-.18.17-.39.29-.63.37-.24.08-.52.12-.85.12-.39,0-.72-.04-1-.12s-.5-.21-.68-.39c-.17-.17-.3-.4-.39-.67s-.12-.6-.12-.98Z"/>
      <path class="cls-2" d="M88.09,46.11v3.65h2.06c.16,0,.29.04.38.12.09.08.13.18.13.3s-.04.22-.13.3-.21.11-.38.11h-2.45c-.22,0-.38-.05-.48-.15-.1-.1-.15-.26-.15-.48v-3.86c0-.21.05-.36.14-.46.09-.1.21-.15.36-.15s.28.05.37.15.14.26.14.46Z"/>
      <path class="cls-2" d="M93.18,45.49c.52,0,.96.1,1.34.32.37.21.65.51.85.9s.29.84.29,1.37c0,.39-.05.74-.16,1.06s-.26.59-.47.82-.47.41-.77.53-.66.19-1.05.19-.74-.06-1.05-.19c-.31-.13-.57-.3-.78-.53-.21-.23-.36-.51-.47-.83-.11-.32-.16-.67-.16-1.05s.06-.74.17-1.06c.11-.32.27-.6.48-.82.21-.23.46-.4.77-.52.3-.12.64-.18,1.03-.18ZM94.63,48.07c0-.37-.06-.68-.18-.95-.12-.27-.29-.47-.51-.61s-.47-.21-.76-.21c-.2,0-.39.04-.56.11s-.32.19-.44.33-.22.33-.29.56c-.07.23-.11.48-.11.76s.04.54.11.77c.07.23.17.42.3.57s.28.26.45.34.36.11.56.11c.26,0,.5-.07.72-.2s.39-.33.52-.6.19-.61.19-1Z"/>
    </g>
    <g>
      <path class="cls-3" d="M46.57,39.86l14.23-13.8-14.3-.06-13.56-14.41-14.21.03-14.01,14.34,14.11.09,14.13,13.86,13.61-.04Z"/>
      <polygon class="cls-3" points="46.57 39.86 32.95 39.89 18.83 26.04 4.72 25.95 18.73 11.61 32.95 11.58 46.51 25.99 60.8 26.06 46.57 39.86"/>
    </g>
    <circle cx="3.15" cy="26.64" r="3.15"/>
    <circle cx="17.29" cy="12.36" r="4.21"/>
    <circle cx="60.37" cy="25.74" r="4.21"/>
    <circle cx="18.56" cy="25.74" r="2.94"/>
    <circle cx="46.43" cy="25.74" r="2.94"/>
    <circle cx="32.92" cy="39.89" r="3.36"/>
    <circle cx="48.45" cy="39.89" r="3.36"/>
    <circle cx="28.64" cy="47.37" r="2.15"/>
    <circle cx="32.98" cy="11.58" r="2.15"/>
    <circle cx="38.36" cy="2.16" r="2.15"/>
    <line class="cls-3" x1="32.63" y1="40.55" x2="28.64" y2="47.37"/>
    <line class="cls-3" x1="38.47" y1="2.75" x2="34.08" y2="10.44"/>
  </g>
</svg>